<svg height="153" viewBox="0 0 80 153" width="80" xmlns="http://www.w3.org/2000/svg" xmlns:xlink="http://www.w3.org/1999/xlink"><filter id="a" height="97.7%" width="77.3%" x="12.1%" y="2.3%"><feGaussianBlur in="SourceGraphic" stdDeviation="0"/></filter><g fill="none" fill-rule="evenodd" transform="translate(0 .928866)"><g transform="matrix(-1 0 0 1 78.811429 .062191)"><path d="m41.7895145 132.041338 13.1044404 6.706399c1.9665723 1.006423 2.7449267 3.416512 1.7385031 5.383085-.3824938.7474-.9904689 1.355497-1.7377933 1.738139l-10.1394153 5.191553c-1.4329774.604986-2.8965484.907479-4.390713.907479-1.4941647 0-2.8566615-.283941-4.0874905-.851823l-11.5111233-5.051925c-2.0228974-.887796-2.9430792-3.247379-2.0552835-5.270276.3753367-.855228 1.0381087-1.552155 1.8734136-1.969957l13.5938046-6.799333c1.1380098-.569208 2.4789465-.563023 3.6116572.016659z" fill="#999" filter="url(#a)"/><path d="m2.66694303 14.8228104 32.08262287-14.25813893c1.0756716-.32936692 2.2343999-.49405039 3.4761849-.49405039 1.2417849 0 2.4140721.24236896 3.5168616.72710686l32.6290183 12.44196456c2.2931986.9919222 3.4397979 2.8928124 3.4397979 5.7026706v99.6570999c0 2.648552-1.4874026 5.456933-3.3418619 6.344203l-.097936.044913-29.2069032 13.475465c-.9714355.398424-2.0256854.597636-3.1627498.597636s-2.1691522-.199212-3.0962634-.597636l-34.87130899-15.242056c-2.22814053-.936713-4.03440531-3.880811-4.03440531-6.575829v-97.1718299c0-3.1836925.89015797-3.8214516 2.66694303-4.6515187z" fill="#d8d8d8" stroke="#484040" stroke-width="2"/></g><path d="m44.7236866 92.1931543 25.3354839-10.6271096c1.453756-.6097861 2.6322581.2561483 2.6322581 1.9341186v29.2430017c0 1.67797-1.1785021 3.532563-2.6322581 4.142349l-25.3354839 10.627109c-1.453756.609786-2.632258-.256148-2.632258-1.934118v-29.2430015c0-1.6779702 1.178502-3.5325632 2.632258-4.1423492z" fill="#d8d8d8" stroke="#bbb"/></g></svg>