<svg height="153" viewBox="0 0 80 153" width="80" xmlns="http://www.w3.org/2000/svg" xmlns:xlink="http://www.w3.org/1999/xlink"><filter id="a" height="97.7%" width="77.5%" x="11.9%" y="2.3%"><feGaussianBlur in="SourceGraphic" stdDeviation="0"/></filter><g fill="none" fill-rule="evenodd" transform="matrix(-1 0 0 1 79 .928866)"><path d="m54.8932992 132.001121 13.1908778 6.783199c1.9646016 1.010265 2.7382442 3.421871 1.7279791 5.386473-.3815113.741902-.9854422 1.345953-1.727268 1.727613l-10.221177 5.258661c-1.4364501.609378-2.903568.914067-4.4013537.914067-1.4977856 0-2.8635844-.286003-4.0973962-.858007l-11.6014325-5.11612c-2.0213195-.891383-2.9373144-3.252594-2.045932-5.273914.3748008-.849907 1.0337091-1.542877 1.8636622-1.960005l13.686533-6.878737c1.1418-.573859 2.4890649-.567627 3.6255073.01677z" fill="#999" filter="url(#a)"/><path d="m2.67340621 12.2354097 32.16037329-11.66663926c1.0782784-.33175781 2.2398148-.49763672 3.4846091-.49763672 1.2447944 0 2.4199226.24412832 3.5253846.73238495l32.7080928 12.53228123c2.298756.9991226 3.448134 2.9138114 3.448134 5.7440665v100.3805146c0 2.667777-1.4910072 5.496545-3.3499606 6.390255l-.0981734.045239-29.2776844 13.573284c-.9737897.401316-2.0305946.601975-3.1704146.601975s-2.174409-.200659-3.103767-.601975l-34.95581754-15.352699c-2.2335403-.943512-4.04418246-3.908982-4.04418246-6.623562v-100.5722041c0-3.206803.89231522-3.8491916 2.67340621-4.6852842z" fill="#d8d8d8" stroke="#484040" stroke-width="2"/><path d="m7.77205882 25.2606958 23.45588238 9.8077179c1.5309658.6401499 2.7720588 2.7117961 2.7720588 4.6271513v25.8770433c0 1.9153552-1.241093 2.9491133-2.7720588 2.3089634l-23.45588238-9.8077179c-1.53096581-.64015-2.77205882-2.7117961-2.77205882-4.6271513v-25.8770433c0-1.9153552 1.24109301-2.9491133 2.77205882-2.3089634z" fill="#c2c2c2"/><path d="m15.4852941 28.587689 16.0294118 6.883476c1.37259.5798246 2.4852941 2.4573979 2.4852941 4.1936772v23.4062915l-17.5147059-7.7381474c-1.37259-.5798246-2.4852941-2.4573979-2.4852941-4.1936772v-20.4576735c0-3.3984092-.1383813-2.7302096 1.4852941-2.0939466z" fill="#f8f8f8"/><g fill="#454545" transform="translate(17 36.071134)"><ellipse cx="2.02333" cy="3.132643" rx="1.751046" ry="2.87091" transform="matrix(-.99756405 .06975647 .06975647 .99756405 3.823209 -.133509)"/><ellipse cx="12.91742" cy="7.998117" rx="1.751046" ry="2.87091" transform="matrix(-.99756405 .06975647 .06975647 .99756405 25.245453 -.881591)"/><path d="m2.33486905 9.92075486c.15773013-.70619737.88222666-1.02192233 1.65756477-.74939148l.14584574.05804145 7.72004794 3.43422037c.8284079.3685127 1.364108 1.2755176 1.1965197 2.0258524-.1577301.7061973-.8822266 1.0219223-1.6575647.7493914l-.1458458-.0580414-7.72004793-3.4342204c-.82840786-.3685126-1.36410798-1.2755176-1.19651972-2.02585234z" fill-rule="nonzero"/></g></g></svg>